<?xml version="1.0" standalone="no"?>
<!DOCTYPE svg PUBLIC "-//W3C//DTD SVG 20010904//EN"
 "http://www.w3.org/TR/2001/REC-SVG-20010904/DTD/svg10.dtd">
<svg version="1.0" xmlns="http://www.w3.org/2000/svg"
 width="595.000000pt" height="420.000000pt" viewBox="0 0 595.000000 420.000000"
 preserveAspectRatio="xMidYMid meet">

<g transform="translate(0.000000,420.000000) scale(0.100000,-0.100000)"
fill="#000000" stroke="none">
<path d="M3093 4117 c-32 -124 -83 -222 -83 -159 0 10 -14 31 -31 48 l-32 29
6 -115 c16 -324 180 -577 443 -684 32 -13 82 -27 109 -31 28 -4 53 -9 57 -11
3 -3 -27 -49 -68 -103 -41 -54 -74 -102 -74 -106 0 -7 197 163 219 189 10 11
30 16 73 16 32 0 94 7 136 15 82 17 232 65 232 74 0 3 -38 4 -84 3 -77 -4
-211 10 -224 22 -2 3 1 12 8 21 10 12 10 15 -2 15 -8 0 -64 -49 -123 -110 -60
-60 -111 -108 -113 -105 -2 2 19 34 48 70 29 36 51 68 49 70 -2 2 -32 -2 -67
-9 -34 -8 -62 -11 -62 -8 0 4 21 28 48 55 26 27 42 51 36 53 -100 38 -270 191
-321 289 -66 129 -103 291 -103 458 l0 97 -28 0 c-26 0 -28 -4 -49 -83z"/>
<path d="M2580 3970 c8 -15 6 -24 -10 -40 -15 -15 -16 -20 -5 -20 22 0 38 36
25 60 -6 11 -13 20 -16 20 -2 0 0 -9 6 -20z"/>
<path d="M1231 3965 c8 -11 36 -45 63 -75 127 -141 206 -268 247 -396 12 -38
28 -77 37 -86 23 -27 226 -124 327 -156 124 -40 238 -56 355 -49 l98 5 15 -37
c22 -53 94 -201 100 -207 3 -3 -8 45 -25 108 -41 150 -41 148 8 163 124 37
262 146 345 273 43 66 89 166 89 194 0 6 -28 -16 -62 -49 -117 -111 -291 -191
-425 -196 l-66 -2 -41 153 c-25 94 -45 152 -53 152 -9 0 -10 -6 -3 -22 14 -34
122 -459 118 -463 -6 -6 -203 418 -202 436 0 10 -5 15 -13 12 -7 -3 -13 -9
-13 -13 0 -5 27 -64 60 -131 33 -68 56 -127 52 -131 -12 -12 -188 20 -292 53
-129 41 -305 129 -414 208 -50 36 -97 71 -104 78 -8 7 -18 10 -24 7 -6 -4 -8
-2 -5 3 4 6 -10 24 -31 39 -20 16 -63 56 -96 89 -32 33 -52 51 -45 40z"/>
<path d="M4197 3872 c-24 -26 -21 -68 5 -86 41 -29 82 -13 93 36 13 53 -61 91
-98 50z"/>
<path d="M4879 3582 c-47 -32 -133 -81 -191 -110 -145 -71 -170 -70 -97 4 l42
42 -26 26 c-14 14 -33 26 -41 26 -22 0 -207 -187 -261 -265 -100 -145 -140
-268 -133 -405 l5 -85 -96 -1 c-78 0 -107 -5 -156 -25 -46 -19 -69 -23 -95
-18 -35 8 -93 -1 -146 -22 -35 -13 -179 -49 -199 -49 -8 0 -38 15 -67 33 -122
77 -242 111 -393 111 -128 0 -205 -22 -294 -82 -48 -33 -134 -123 -159 -168
-9 -16 -13 -16 -47 5 -74 43 -201 73 -315 73 -114 1 -171 -12 -261 -57 -59
-31 -150 -119 -170 -167 -11 -28 -15 -30 -48 -24 -20 3 -69 6 -110 6 -73 0
-73 0 -69 25 3 14 1 28 -3 31 -5 3 -9 18 -9 33 0 16 -10 37 -24 50 l-25 23 78
77 c94 92 122 152 129 276 3 68 -1 93 -25 170 -16 50 -44 113 -61 140 l-32 50
0 -42 c0 -142 -76 -287 -193 -371 l-46 -33 -14 23 c-8 13 -35 57 -60 99 -45
73 -149 212 -221 294 l-35 40 -1 -62 c0 -35 -3 -63 -6 -63 -3 0 -53 43 -110
95 -99 91 -124 110 -108 83 19 -33 151 -216 189 -262 23 -28 50 -64 60 -79 21
-33 35 -21 35 29 0 17 3 33 6 37 6 6 244 -229 244 -242 0 -13 -109 -62 -194
-86 -151 -44 -209 -50 -476 -50 -258 0 -336 8 -525 51 -32 7 -61 12 -63 9 -2
-2 3 -14 12 -27 12 -18 39 -29 128 -51 238 -60 524 -170 618 -237 25 -18 38
-20 92 -14 l63 6 0 -54 1 -55 -86 28 c-143 46 -430 98 -430 78 0 -18 54 -47
97 -54 106 -15 299 -56 365 -76 60 -19 72 -27 83 -53 17 -39 40 -152 70 -331
29 -171 28 -172 -95 -295 -149 -149 -370 -280 -647 -384 -40 -15 -73 -31 -73
-36 0 -4 8 -17 18 -29 l17 -22 59 20 c168 59 440 116 601 128 86 6 93 8 144
47 135 103 122 96 168 86 44 -10 193 -7 212 4 6 4 11 2 11 -4 0 -7 5 -8 13 -3
6 4 71 9 142 10 148 2 162 4 192 21 12 6 29 9 37 6 9 -3 16 -1 16 5 0 6 4 11
10 11 5 0 23 14 40 30 34 33 39 33 119 -1 24 -10 56 -19 71 -19 14 0 30 -3 34
-7 10 -11 166 -9 169 1 3 9 50 18 95 17 12 -1 22 4 22 9 0 6 7 10 15 10 8 0
15 5 15 11 0 6 9 8 20 4 14 -5 29 2 51 24 33 34 44 38 53 19 3 -7 3 -2 0 10
-5 21 -3 23 15 17 16 -5 20 -3 15 9 -4 11 -2 15 7 11 8 -2 23 2 34 11 17 13
18 16 5 24 -22 14 4 12 37 -2 15 -7 50 -26 78 -43 27 -16 54 -30 60 -31 25 -3
55 -17 55 -26 0 -5 9 -6 20 -3 12 4 31 0 45 -9 16 -10 26 -12 30 -5 5 7 11 6
21 -2 10 -8 18 -9 27 0 8 6 17 7 21 3 11 -10 70 -9 78 2 4 6 12 5 22 -3 12
-10 19 -9 37 8 26 24 35 26 43 9 5 -10 7 -10 12 0 7 14 34 16 34 2 0 -5 5 -10
10 -10 6 0 10 7 10 15 0 8 -4 15 -10 15 -5 0 -10 5 -10 11 0 8 5 8 15 -1 11
-9 18 -10 29 -1 7 6 20 9 28 6 8 -3 23 3 33 15 13 15 21 17 31 9 20 -16 96 57
88 85 -4 17 -3 18 5 6 8 -12 13 -12 23 -2 10 10 10 15 -2 22 -9 6 -10 10 -3
10 6 0 15 -5 19 -11 4 -8 9 -7 16 2 7 11 11 11 15 2 2 -7 11 -13 19 -13 17 0
18 -16 2 -24 -10 -5 -10 -7 0 -12 17 -8 15 -22 -8 -47 -12 -12 -16 -23 -10
-25 5 -2 10 -10 10 -18 0 -9 5 -12 10 -9 8 5 7 11 -1 21 -20 24 0 30 23 7 l21
-22 -31 -31 c-20 -20 -36 -28 -44 -23 -7 4 -22 6 -33 4 -15 -2 -17 0 -8 11 9
10 8 18 -3 32 -7 11 -17 16 -21 12 -4 -4 -1 -11 7 -16 12 -8 11 -13 -9 -31
-18 -17 -25 -19 -32 -8 -4 7 -10 11 -14 8 -3 -3 4 -14 15 -24 11 -10 20 -13
20 -7 0 20 24 13 39 -9 10 -17 10 -23 1 -29 -9 -5 -9 -9 -1 -14 6 -4 11 -2 11
3 0 6 5 11 10 11 18 0 10 -29 -12 -44 -12 -9 -18 -16 -12 -16 5 0 15 5 22 12
6 6 13 10 15 7 2 -2 18 -26 36 -52 26 -38 30 -51 21 -62 -7 -8 -16 -12 -21 -9
-13 8 -11 22 4 27 6 2 3 3 -9 1 -24 -4 -62 30 -45 40 5 4 14 -2 20 -11 5 -10
13 -15 17 -10 4 4 -1 16 -11 27 -20 23 -36 26 -33 8 2 -7 -4 -12 -13 -12 -9 1
-16 -5 -16 -12 0 -8 9 -14 19 -14 11 0 16 -5 13 -10 -3 -6 -17 -7 -31 -4 -16
4 -24 2 -24 -7 -1 -9 -6 -7 -15 5 -20 27 -19 6 1 -22 9 -13 13 -26 9 -30 -3
-3 -10 0 -15 8 -6 9 -10 10 -10 3 0 -6 5 -15 10 -18 8 -5 7 -11 -1 -21 -9 -11
-9 -17 0 -28 8 -9 8 -16 2 -20 -5 -4 -15 2 -21 11 -8 15 -9 13 -4 -9 4 -18 2
-28 -5 -28 -6 0 -11 17 -11 40 0 31 -3 38 -15 34 -10 -4 -15 0 -15 11 0 10 5
15 13 12 8 -3 14 1 14 9 0 8 -6 14 -14 14 -7 0 -13 7 -13 16 0 8 -5 12 -11 8
-8 -4 -8 -9 0 -17 16 -16 14 -27 -5 -27 -8 0 -12 5 -9 10 3 6 0 10 -9 10 -8 0
-16 -6 -19 -12 -2 -7 -8 -10 -12 -6 -4 4 -3 13 3 20 7 10 3 18 -16 32 l-27 20
19 -22 c16 -19 17 -23 3 -37 -9 -8 -20 -15 -26 -15 -15 0 -14 17 2 23 7 2 8 8
3 13 -5 5 -11 4 -13 -3 -3 -7 -11 -13 -19 -13 -9 0 -12 -4 -9 -10 9 -14 -19
-12 -33 2 -9 9 -12 9 -12 0 0 -7 -7 -12 -15 -12 -8 0 -15 5 -15 10 0 6 -4 10
-10 10 -17 0 -11 -14 11 -29 18 -10 23 -10 30 0 6 10 11 10 21 1 11 -9 17 -9
27 1 9 9 14 9 21 -2 7 -12 11 -13 25 -1 13 11 18 10 30 -6 8 -10 15 -22 15
-26 0 -13 -18 -9 -24 5 -5 10 -7 10 -12 0 -7 -17 -31 -17 -36 -1 -3 9 -9 8
-21 -4 -20 -19 -22 -35 -5 -40 7 -3 8 -9 3 -18 -6 -10 -11 -9 -21 5 -8 10 -17
15 -21 12 -3 -4 2 -13 12 -21 14 -10 15 -15 6 -21 -8 -4 -21 1 -34 13 -18 18
-19 23 -6 39 13 16 12 17 -3 5 -15 -12 -20 -12 -33 2 -18 17 -26 20 -24 9 3
-20 -2 -34 -11 -28 -5 3 -10 2 -10 -3 0 -6 7 -12 15 -16 8 -3 12 -12 9 -21 -6
-14 -8 -14 -25 1 -11 10 -19 12 -19 6 0 -16 -27 -15 -33 1 -3 8 -14 2 -31 -17
-15 -15 -25 -31 -22 -34 3 -3 16 6 27 19 15 16 23 20 26 12 3 -7 9 -13 15 -13
13 0 38 -26 38 -39 0 -16 -8 -14 -32 9 -12 11 -26 20 -31 20 -5 0 9 -16 32
-36 22 -20 38 -40 35 -45 -9 -15 -24 -10 -24 7 0 8 -4 13 -9 9 -6 -3 -15 3
-21 12 -8 13 -13 14 -16 6 -3 -7 -12 -13 -20 -13 -9 0 -12 5 -8 12 4 7 3 8 -5
4 -9 -6 -9 -11 0 -23 10 -12 10 -16 -1 -23 -8 -5 -11 -12 -7 -17 5 -4 12 -1
17 7 5 8 12 11 16 7 8 -7 -24 -47 -38 -47 -4 0 -8 7 -8 15 0 8 -7 15 -15 15
-9 0 -15 10 -15 26 0 14 4 23 10 19 6 -4 8 -11 5 -16 -4 -5 -1 -9 4 -9 18 0
12 21 -11 41 -18 15 -20 20 -9 28 10 6 10 10 1 16 -7 4 -16 1 -21 -6 -8 -12
-11 -12 -18 1 -6 8 -13 12 -16 8 -4 -3 3 -16 14 -27 17 -17 19 -26 11 -41 -7
-13 -7 -21 0 -25 6 -4 7 -11 4 -17 -4 -6 -7 -23 -8 -37 -1 -25 -3 -26 -91 -32
-190 -14 -368 -104 -527 -265 -117 -120 -203 -246 -253 -372 -17 -42 -17 -43
5 -67 13 -14 29 -25 35 -25 6 0 21 21 34 47 41 86 152 243 219 312 64 65 71
70 152 92 69 19 110 23 220 24 74 0 148 -4 163 -8 l28 -8 -7 -78 -6 -78 32 -7
c44 -8 50 -8 50 4 0 6 -13 10 -28 10 -16 0 -31 2 -33 4 -6 6 27 335 34 342 2
3 8 -35 11 -83 11 -140 9 -135 74 -156 223 -71 499 -354 598 -613 9 -24 22
-44 29 -44 10 0 9 14 -3 63 -10 43 -15 121 -16 258 l-2 196 -42 57 c-24 31
-40 61 -36 68 4 6 3 8 -4 4 -6 -3 -32 16 -59 45 -119 127 -298 232 -450 265
-69 14 -83 21 -83 36 0 15 5 18 19 13 13 -4 27 1 41 15 21 21 23 21 41 4 12
-10 19 -12 19 -5 0 6 -7 14 -15 17 -17 7 -20 24 -5 24 5 0 19 -8 30 -17 20
-17 20 -17 -2 -40 -38 -40 -10 -25 32 18 42 42 69 49 31 7 -21 -22 -21 -23 -4
-36 16 -11 16 -14 3 -23 -13 -9 -13 -10 1 -6 9 3 23 -3 33 -14 11 -14 23 -18
41 -13 26 6 36 -9 13 -20 -7 -3 -4 -4 7 -1 14 3 35 -9 69 -40 27 -25 51 -43
54 -40 4 3 0 10 -8 16 -13 8 -13 10 0 20 11 8 12 12 3 16 -19 7 -16 21 8 46
l22 22 -6 -24 c-3 -14 -1 -31 5 -39 9 -10 8 -16 -2 -22 -11 -7 -11 -12 -2 -23
7 -7 9 -17 5 -20 -3 -4 -4 -7 0 -7 3 0 17 11 31 25 25 25 46 32 46 16 0 -5 -6
-11 -12 -14 -7 -2 -10 -8 -6 -12 4 -5 17 4 29 19 11 14 25 24 30 21 14 -9 11
-25 -6 -25 -8 0 -15 -7 -15 -15 0 -8 -5 -15 -11 -15 -6 0 3 -14 20 -31 28 -27
33 -29 46 -15 19 19 20 32 0 16 -11 -9 -18 -8 -34 7 l-20 19 20 18 c24 20 38
14 20 -8 -8 -10 -9 -16 -1 -21 5 -3 10 0 10 9 0 8 6 16 13 19 8 3 5 11 -10 24
-23 21 -30 43 -14 43 5 0 11 -5 13 -12 3 -8 12 -5 28 10 13 12 19 22 14 22 -6
0 -15 -5 -22 -12 -6 -6 -15 -8 -19 -3 -5 4 -2 10 5 12 6 3 12 11 12 18 0 7 6
16 13 19 10 5 10 7 0 12 -18 8 -16 34 2 34 8 0 15 -6 15 -14 0 -8 6 -17 13
-20 10 -5 10 -7 0 -12 -18 -8 -16 -21 3 -28 8 -3 12 -2 9 3 -3 5 -1 12 5 16 6
4 6 12 -2 24 -10 16 -7 23 18 45 16 14 23 26 17 26 -7 0 -13 -4 -13 -10 0 -5
-7 -10 -15 -10 -8 0 -15 3 -15 8 0 13 40 43 50 37 4 -3 6 4 3 15 -4 16 -2 19
12 13 13 -5 16 -3 10 6 -4 8 -2 17 6 23 11 7 11 11 2 15 -16 6 -17 33 -3 33 6
0 13 -7 17 -15 5 -14 8 -14 24 1 30 27 34 8 7 -28 -118 -155 -144 -385 -71
-628 31 -101 92 -227 124 -255 l22 -20 -8 20 c-34 80 -77 227 -91 309 -15 89
-15 101 -1 130 45 96 202 232 305 265 40 13 44 13 57 -5 7 -10 21 -28 29 -39
l16 -20 -7 20 c-3 11 -10 26 -16 32 -31 41 56 63 247 63 178 0 302 -23 511
-93 130 -44 266 -104 389 -172 176 -97 127 -39 -79 95 -97 63 -241 177 -323
257 -40 38 -101 117 -96 124 6 10 169 -46 296 -101 83 -36 88 -37 67 -14 -21
22 -256 144 -279 144 -5 0 -13 6 -17 13 -14 21 -73 59 -86 53 -7 -2 -4 -5 6
-5 9 -1 17 -5 17 -9 0 -5 11 -15 25 -22 38 -20 22 -23 -21 -4 -22 9 -52 19
-69 21 -16 3 -32 8 -35 11 -3 4 -23 9 -45 11 -49 4 -61 11 -44 23 10 7 8 8 -6
2 -27 -10 -78 -9 -82 3 -2 5 -33 7 -70 5 -50 -4 -64 -2 -58 8 6 9 3 9 -14 1
-25 -14 -63 2 -56 22 3 6 -6 21 -20 31 -26 20 -33 36 -14 36 15 0 75 -62 71
-74 -2 -6 3 -5 10 2 11 11 10 15 -5 23 -9 6 -14 15 -11 21 4 6 3 8 -3 5 -10
-6 -43 26 -43 43 0 18 14 10 52 -31 22 -24 38 -34 38 -26 0 9 -6 17 -12 20
-10 3 -10 7 -1 19 10 11 10 17 0 27 -9 11 -9 14 1 18 6 3 12 11 12 18 0 7 -6
15 -12 18 -7 2 -10 8 -6 12 4 4 14 3 21 -3 10 -9 16 -9 25 0 17 17 27 1 12
-18 -11 -13 -11 -17 0 -24 10 -6 11 -12 3 -22 -8 -10 -8 -18 3 -32 7 -11 17
-16 21 -11 5 4 2 10 -4 12 -19 7 -15 33 5 33 16 1 16 1 0 14 -21 15 -23 33 -6
38 7 3 -7 23 -31 47 -23 23 -46 39 -49 35 -4 -3 -1 -9 6 -11 13 -5 17 -33 4
-33 -5 0 -17 8 -26 19 -16 18 -15 20 14 50 32 31 50 39 50 21 0 -5 -7 -10 -15
-10 -20 0 -19 -6 5 -30 24 -24 26 -24 34 -4 3 8 2 12 -4 9 -6 -3 -15 -3 -22 1
-8 5 -6 11 7 20 16 12 16 14 2 28 -9 9 -20 16 -26 16 -6 0 -11 7 -11 15 0 8
-4 15 -10 15 -5 0 -10 5 -10 11 0 8 4 8 15 -1 15 -13 39 -5 30 11 -4 5 -1 9 5
9 6 0 13 -8 16 -17 15 -46 41 -100 67 -135 15 -21 25 -43 22 -49 -4 -5 -2 -8
3 -7 13 4 99 -94 96 -110 -1 -7 0 -8 3 -2 7 15 26 12 20 -4 -4 -10 0 -12 14
-9 15 4 17 10 11 32 -4 14 -7 64 -7 111 1 65 6 96 22 133 20 42 25 47 55 47
86 0 188 98 188 179 0 37 1 38 88 79 196 93 547 161 825 162 l58 0 -15 29 -15
28 -163 7 c-90 4 -206 12 -258 17 -110 12 -291 47 -304 59 -13 13 135 46 292
65 28 4 52 10 52 14 0 4 -11 18 -24 30 -24 22 -29 23 -123 16 -102 -7 -185
-21 -315 -53 l-77 -19 6 28 c4 23 1 30 -19 39 -22 11 -25 20 -35 113 -13 125
-37 182 -101 246 -73 73 -162 111 -259 111 -38 0 -43 3 -43 23 0 36 29 126 60
187 72 140 208 295 376 426 46 36 84 71 84 77 -1 16 -25 47 -36 47 -5 0 -48
-26 -95 -58z m-281 -755 c6 0 12 -4 12 -9 0 -5 6 -8 13 -7 36 6 107 -47 142
-107 31 -53 48 -104 34 -104 -5 0 -9 9 -9 20 0 11 -4 20 -10 20 -5 0 -10 4
-10 9 0 17 -105 113 -142 131 -21 9 -36 19 -34 21 7 7 -137 3 -174 -6 -48 -10
-130 -51 -160 -80 l-26 -25 -49 26 c-46 23 -58 25 -141 21 -78 -3 -100 -8
-149 -35 -54 -29 -59 -30 -86 -17 -37 20 -47 19 -131 -10 -79 -27 -141 -36
-146 -20 -2 6 11 14 30 19 18 4 68 20 112 33 62 20 91 24 135 20 46 -5 67 -2
121 20 82 34 190 37 265 9 l51 -18 44 29 c74 50 166 74 245 66 28 -3 56 -6 63
-6z m-1422 -103 c90 -29 140 -56 207 -111 53 -44 119 -129 137 -176 7 -18 17
-42 22 -54 6 -11 8 -27 5 -35 -4 -13 -25 27 -32 64 -11 52 -53 78 -48 29 3
-27 -13 -28 -20 -1 -3 11 2 27 10 35 13 14 13 18 -3 43 -10 16 -19 22 -22 14
-2 -7 -8 -9 -14 -6 -6 4 -5 -2 1 -15 13 -24 23 -28 15 -6 -4 8 -2 15 4 15 15
0 22 -26 10 -38 -14 -14 -38 -4 -39 17 0 10 -2 11 -6 4 -2 -7 4 -28 15 -45 60
-98 66 -239 15 -345 -98 -205 -398 -328 -590 -243 -56 25 -65 25 -35 0 13 -11
20 -25 17 -31 -5 -8 -1 -9 14 -4 26 8 28 -10 4 -24 -15 -8 -15 -11 -3 -12 8
-1 21 -1 29 0 7 2 10 -2 7 -8 -6 -10 67 -28 139 -35 22 -2 4 -2 -40 -1 -94 3
-149 22 -223 77 -109 81 -162 199 -169 380 -9 190 38 342 135 436 79 77 146
100 283 101 78 1 112 -4 175 -25z m1375 15 c41 -14 85 -53 107 -94 15 -29 27
-235 35 -585 l2 -115 -115 3 c-78 3 -119 8 -129 17 -10 10 -15 68 -21 232 -8
235 -17 279 -58 294 -36 14 -87 -6 -114 -43 -26 -37 -27 -64 -15 -310 l9 -168
-112 0 c-61 0 -120 5 -131 10 -17 9 -19 22 -20 103 0 51 -4 145 -8 210 -7 103
-11 121 -31 142 -36 38 -97 28 -144 -24 -18 -19 -18 -33 -12 -221 7 -190 7
-200 -11 -201 -22 -2 -97 2 -101 5 -1 2 7 38 18 81 41 159 15 318 -75 453 -19
30 -35 57 -35 60 0 7 139 52 158 52 6 0 13 -18 17 -40 4 -22 9 -40 12 -40 2 0
30 20 61 45 71 55 130 77 207 78 69 1 114 -19 146 -62 l21 -29 36 41 c85 93
210 137 303 106z m-2226 -124 c73 -16 229 -84 208 -92 -6 -2 -31 5 -54 16 -24
12 -51 18 -62 15 -13 -4 -17 -2 -13 5 7 11 3 13 -49 16 -16 1 -63 7 -103 14
-166 26 -330 -38 -398 -155 -14 -24 -29 -44 -33 -44 -50 0 41 127 126 177 104
61 237 78 378 48z m2492 -72 c-3 -10 -5 -2 -5 17 0 19 2 27 5 18 2 -10 2 -26
0 -35z m-3438 15 c22 -23 26 -38 40 -161 5 -43 11 -80 13 -83 2 -2 28 6 58 17
101 38 226 23 306 -37 38 -29 101 -114 85 -114 -5 0 -19 15 -30 34 -24 38 -47
51 -55 33 -5 -9 -7 -9 -12 1 -3 6 -10 12 -15 12 -5 0 6 -20 25 -45 83 -108
113 -299 67 -419 -21 -53 -69 -103 -122 -125 -43 -19 -66 -22 -139 -19 -49 1
-87 5 -84 7 6 6 -29 30 -43 31 -7 0 -13 -8 -13 -19 0 -25 -25 -31 -145 -32
-55 0 -93 -3 -85 -6 8 -3 23 -12 32 -20 18 -16 171 -21 253 -9 l40 6 -35 -11
c-58 -18 -261 -31 -292 -18 -35 14 -43 39 -63 204 -21 171 -55 358 -97 526
-31 125 -31 126 -12 152 13 18 55 39 139 71 66 25 130 45 142 45 12 1 31 -9
42 -21z m962 -57 c31 -13 78 -39 105 -60 l49 -37 -4 -144 c-2 -123 0 -159 19
-238 l22 -94 -38 -40 c-97 -99 -261 -161 -377 -144 l-43 7 4 117 c4 98 1 131
-17 196 -30 107 -64 170 -132 241 -57 60 -58 62 -42 86 43 65 98 109 163 130
49 16 231 3 291 -20z m1157 -66 c10 -21 9 -25 -4 -25 -8 0 -12 5 -9 10 4 6 1
17 -5 25 -7 8 -8 15 -3 15 5 0 15 -11 21 -25z m62 -126 c0 -11 -4 -17 -10 -14
-5 3 -10 13 -10 21 0 8 5 14 10 14 6 0 10 -9 10 -21z m807 -36 c-3 -10 -5 -4
-5 12 0 17 2 24 5 18 2 -7 2 -21 0 -30z m-450 -15 c-3 -7 -5 -2 -5 12 0 14 2
19 5 13 2 -7 2 -19 0 -25z m-2074 -58 c26 -41 7 -32 -24 12 -12 17 -17 29 -10
27 7 -3 22 -20 34 -39z m2074 -12 c-3 -7 -5 -2 -5 12 0 14 2 19 5 13 2 -7 2
-19 0 -25z m-2001 -85 c-2 -2 -11 9 -19 26 -8 16 -12 32 -9 36 3 3 12 -9 19
-26 7 -18 11 -34 9 -36z m31 -145 c-3 -7 -5 -2 -5 12 0 14 2 19 5 13 2 -7 2
-19 0 -25z m2059 -101 c-7 -5 -3 -7 9 -5 11 1 25 -1 31 -4 6 -4 69 -9 140 -10
120 -3 131 -1 161 20 17 12 36 22 41 22 6 0 13 6 16 13 4 8 5 7 5 -3 -2 -33 2
-42 15 -37 10 4 13 1 10 -8 -4 -10 5 -16 31 -21 20 -3 34 -9 31 -11 -10 -10
-63 9 -89 32 l-26 25 -38 -26 -38 -26 -149 6 c-145 6 -165 11 -218 48 -14 10
-21 8 -38 -7 -18 -17 -40 -21 -124 -23 -56 -2 -117 1 -136 6 -28 8 -8 10 97
11 127 1 133 2 163 27 30 26 31 26 53 8 l22 -19 -22 26 c-37 42 -26 43 21 2
29 -25 40 -41 32 -46z m577 -54 c-7 -2 -21 -2 -30 0 -10 3 -4 5 12 5 17 0 24
-2 18 -5z m-609 -58 c-4 -8 -2 -15 4 -15 6 0 12 5 14 12 3 7 13 5 32 -7 l27
-18 -25 -22 c-14 -12 -26 -26 -26 -30 0 -4 7 -2 15 5 20 17 86 -43 67 -62 -9
-9 -12 -8 -12 5 0 9 -4 17 -10 17 -5 0 -10 -4 -10 -9 0 -6 5 -13 10 -16 15 -9
12 -25 -5 -25 -8 0 -15 8 -15 17 0 14 -4 12 -22 -7 -15 -16 -18 -25 -10 -28 7
-2 12 -10 12 -18 0 -8 7 -14 16 -14 8 0 12 -4 9 -10 -3 -5 0 -10 9 -10 8 0 17
6 20 13 5 10 7 10 12 0 9 -20 28 -15 39 9 12 27 35 36 35 13 0 -9 -4 -13 -10
-10 -5 3 -10 0 -10 -9 0 -8 -6 -16 -12 -19 -7 -2 -10 -8 -5 -12 4 -5 14 0 22
11 13 17 14 17 15 2 0 -10 -4 -18 -10 -18 -5 0 -10 -6 -10 -14 0 -8 -6 -16
-12 -19 -7 -2 -9 -8 -5 -13 5 -5 13 -1 18 9 6 9 14 15 20 12 14 -9 11 -25 -6
-25 -8 0 -15 -5 -15 -11 0 -6 -7 -17 -15 -26 -13 -12 -18 -13 -31 -2 -13 10
-17 10 -25 -2 -8 -11 -14 -9 -35 15 -24 27 -26 28 -39 10 -8 -11 -15 -22 -15
-26 0 -5 -7 -8 -15 -8 -8 0 -15 -7 -15 -15 0 -8 8 -15 17 -15 14 0 14 -3 -5
-20 -28 -26 -33 -25 -57 7 -11 14 -26 32 -32 39 -7 7 -10 19 -7 27 3 8 1 18
-5 22 -16 9 -13 25 3 25 8 0 17 6 20 13 5 10 7 10 12 0 3 -7 12 -13 20 -13 8
0 14 -4 14 -10 0 -5 5 -10 10 -10 19 0 10 15 -20 35 -16 11 -32 26 -35 34 -7
19 30 58 39 42 4 -6 0 -14 -8 -17 -19 -7 -22 -35 -3 -31 6 1 11 -4 9 -11 -3
-17 20 -11 26 6 2 7 -3 12 -12 12 -9 0 -16 5 -16 10 0 6 5 10 11 10 14 0 39
-25 39 -39 0 -6 3 -10 8 -10 16 3 23 -2 17 -12 -5 -7 -14 -4 -26 7 -17 15 -19
15 -19 1 0 -8 6 -18 13 -21 10 -5 10 -7 0 -12 -7 -3 -13 -12 -13 -19 0 -7 -6
-15 -12 -18 -8 -2 -9 -8 -4 -13 5 -5 11 -4 13 4 3 6 11 12 19 12 8 0 13 4 12
9 -2 5 8 18 21 30 19 16 22 24 13 33 -15 15 -15 28 -2 28 6 0 10 -7 10 -16 0
-8 4 -13 9 -9 5 3 12 1 16 -4 3 -5 -3 -15 -12 -20 -17 -11 -17 -11 0 -22 9 -5
15 -14 12 -20 -4 -5 1 -9 9 -9 19 0 22 26 4 32 -8 3 -5 12 10 28 12 13 22 27
22 32 0 13 -18 9 -22 -4 -6 -16 -68 28 -68 48 0 8 -7 14 -15 14 -8 0 -15 -7
-15 -15 0 -8 7 -15 15 -15 8 0 15 -4 15 -10 0 -14 -7 -13 -36 7 -25 16 -25 17
-8 31 14 10 15 16 7 19 -7 3 -13 11 -13 19 0 9 -4 13 -9 9 -12 -7 -24 12 -16
26 5 6 12 4 21 -8 12 -16 15 -16 23 -3 8 12 13 12 23 2 9 -9 9 -12 -5 -12 -9
0 -17 -7 -17 -15 0 -8 2 -15 5 -15 12 0 66 62 60 68 -4 4 -10 1 -12 -5 -7 -19
-27 -16 -41 7 -11 18 -9 24 12 47 14 15 23 29 21 32 -3 2 -11 -4 -19 -14 -13
-18 -15 -18 -30 -2 -19 18 -31 23 -21 8 7 -12 -12 -24 -26 -16 -6 4 3 17 22
31 39 28 40 29 33 9z m-294 -10 c0 -13 3 -13 20 -3 25 16 37 4 19 -19 -12 -16
-12 -17 1 -7 21 17 70 14 91 -4 18 -16 18 -17 -1 -34 -23 -22 -30 -23 -30 -3
0 8 5 15 10 15 16 0 12 17 -6 24 -11 4 -15 2 -11 -8 9 -22 -5 -28 -25 -9 -11
9 -18 11 -18 5 0 -7 5 -12 10 -12 6 0 10 -7 10 -15 0 -8 -3 -15 -8 -15 -4 0
-13 -10 -21 -21 -11 -18 -11 -23 1 -30 11 -7 10 -11 -2 -19 -12 -7 -12 -12 -2
-22 9 -9 12 -8 12 6 0 11 5 16 14 13 10 -4 13 5 11 34 -1 22 2 42 6 45 10 6
10 9 13 -69 1 -32 -2 -61 -6 -63 -4 -3 -8 5 -8 17 0 18 -3 20 -12 11 -8 -8 -8
-15 2 -27 10 -12 10 -15 -3 -15 -8 0 -17 6 -20 13 -2 6 -8 9 -12 4 -5 -4 0
-13 10 -21 13 -9 15 -15 6 -20 -6 -4 -18 -3 -26 4 -9 7 -15 8 -20 0 -3 -5 -10
-10 -16 -10 -14 0 -11 28 4 33 8 3 3 11 -13 25 -17 13 -26 17 -29 9 -2 -7 -8
-15 -13 -18 -9 -6 18 -38 71 -84 16 -14 22 -15 19 -5 -2 11 4 14 20 12 13 -2
32 4 43 14 15 13 22 15 31 6 16 -16 28 -15 28 3 0 8 -3 14 -7 14 -17 -3 -24 2
-18 12 5 7 14 4 26 -7 11 -9 21 -15 24 -12 7 7 -30 48 -44 48 -13 0 -15 16 -3
24 5 3 23 -10 40 -29 l32 -33 -25 -20 c-17 -14 -23 -26 -19 -38 4 -14 3 -16
-4 -5 -7 9 -12 10 -16 2 -4 -6 -14 -11 -22 -11 -8 0 -12 5 -9 10 9 15 -51 12
-63 -2 -7 -10 -3 -18 14 -31 21 -15 24 -16 24 -2 0 8 -7 15 -15 15 -8 0 -15 5
-15 10 0 17 27 11 35 -7 9 -20 16 -83 10 -83 -3 0 -24 21 -47 47 -24 25 -69
72 -100 103 -32 31 -58 63 -58 71 1 10 4 10 14 -4 12 -16 16 -14 54 24 l41 41
-27 23 c-21 18 -24 26 -14 37 8 10 8 18 1 25 -8 8 -5 17 7 32 22 25 34 27 34
6z m240 5 c0 -5 -8 -10 -17 -10 -15 0 -16 2 -3 10 19 12 20 12 20 0z m-50 -9
c0 -5 8 -11 18 -13 11 -2 13 -6 6 -10 -6 -4 -19 1 -29 12 -10 12 -13 20 -7 20
7 0 12 -4 12 -9z m-365 -21 c3 -5 1 -10 -4 -10 -6 0 -11 5 -11 10 0 6 2 10 4
10 3 0 8 -4 11 -10z m356 -9 c11 -10 17 -21 12 -24 -5 -3 -19 5 -32 19 -27 28
-10 33 20 5z m229 10 c0 -5 -6 -11 -12 -14 -7 -2 -10 -8 -5 -12 4 -5 14 0 22
11 8 10 15 15 15 9 0 -5 4 -4 9 4 7 11 12 11 31 -2 20 -14 20 -16 4 -25 -9 -5
-14 -14 -10 -21 11 -16 26 -13 20 4 -7 18 7 20 24 3 6 -6 15 -8 19 -3 5 4 2
10 -4 12 -7 3 -13 11 -13 18 0 7 -8 15 -17 17 -10 3 2 4 27 4 25 0 37 -1 28
-4 -21 -4 -24 -32 -4 -32 8 0 16 -6 19 -12 2 -7 8 -9 13 -5 5 5 1 13 -9 19
-18 9 -18 11 3 25 12 8 24 12 27 9 4 -3 1 -6 -5 -6 -16 0 -15 -27 1 -33 9 -4
9 -8 -2 -15 -7 -5 -12 -15 -9 -22 2 -7 20 5 43 29 39 39 40 40 57 21 17 -18
17 -21 1 -39 -9 -11 -20 -18 -25 -15 -4 3 -8 -2 -8 -10 0 -20 -9 -20 -32 1
-17 15 -18 15 -18 0 0 -25 -15 -21 -30 8 -15 27 -40 34 -40 10 0 -8 -4 -15
-10 -15 -5 0 -10 7 -10 16 0 8 -5 12 -10 9 -8 -5 -7 -11 0 -20 7 -8 8 -20 4
-27 -6 -9 -10 -5 -14 12 l-6 25 -19 -22 c-10 -12 -23 -19 -29 -16 -6 4 -2 -3
8 -15 25 -29 14 -40 -14 -14 l-21 20 25 20 c14 11 26 26 26 32 0 9 -7 7 -20
-5 -20 -18 -21 -18 -35 1 -8 10 -15 22 -15 27 0 4 -7 7 -15 7 -8 0 -15 5 -15
10 0 6 7 10 15 10 8 0 15 5 15 10 0 6 5 10 10 10 6 0 10 -4 10 -9z m217 -27
c-9 -9 -28 6 -21 18 4 6 10 6 17 -1 6 -6 8 -13 4 -17z m-387 2 c0 -8 -6 -17
-12 -19 -7 -3 -8 -6 -2 -6 5 -1 20 8 33 20 36 34 37 13 1 -23 -21 -21 -35 -28
-38 -20 -2 6 -10 12 -18 12 -9 0 -12 -4 -9 -10 3 -5 -1 -10 -9 -10 -9 0 -16 5
-16 10 0 6 -7 10 -16 10 -8 0 -12 -4 -9 -10 3 -5 -1 -10 -9 -10 -22 0 -20 13
5 36 16 14 22 15 28 5 7 -10 12 -10 30 0 11 8 21 17 21 21 0 5 5 8 10 8 6 0
10 -6 10 -14z m-460 -25 c0 -6 -4 -13 -10 -16 -5 -3 -10 1 -10 9 0 9 5 16 10
16 6 0 10 -4 10 -9z m510 -16 c0 -8 -4 -15 -10 -15 -5 0 -10 7 -10 15 0 8 5
15 10 15 6 0 10 -7 10 -15z m-1875 -5 c20 -15 117 -32 148 -26 17 3 38 2 46
-3 21 -14 -87 -25 -156 -16 -72 9 -83 13 -83 34 0 18 27 24 45 11z m325 6 c0
-3 -4 -8 -10 -11 -5 -3 -10 -1 -10 4 0 6 5 11 10 11 6 0 10 -2 10 -4z m970
-16 c0 -5 -4 -10 -10 -10 -5 0 -10 5 -10 10 0 6 5 10 10 10 6 0 10 -4 10 -10z
m887 -32 c5 13 33 17 33 4 0 -5 -9 -17 -20 -27 -17 -16 -21 -16 -35 -2 -8 9
-15 20 -15 26 0 6 -7 11 -15 11 -8 0 -15 -7 -15 -15 0 -8 -4 -15 -10 -15 -15
0 -12 17 7 40 17 20 18 20 42 -8 15 -17 25 -23 28 -14z m-527 17 c0 -8 -4 -15
-10 -15 -5 0 -10 7 -10 15 0 8 5 15 10 15 6 0 10 -7 10 -15z m65 -5 c17 -19
16 -24 -2 -17 -5 1 -7 6 -5 11 2 5 -4 6 -13 3 -9 -4 -15 -1 -15 8 0 21 14 19
35 -5z m38 8 c3 -10 7 -10 20 0 14 12 19 12 32 -1 15 -16 20 -37 8 -37 -3 0
-15 7 -25 17 -17 15 -18 15 -18 0 0 -10 -2 -17 -5 -17 -11 0 -44 34 -39 42 8
12 22 10 27 -4z m-1516 -4 c-3 -3 -12 -4 -19 -1 -8 3 -5 6 6 6 11 1 17 -2 13
-5z m1823 -20 c0 -8 4 -13 9 -9 11 6 26 -13 17 -22 -7 -7 -46 26 -46 39 0 4 5
8 10 8 6 0 10 -7 10 -16z m-2567 -1 c-7 -2 -19 -2 -25 0 -7 3 -2 5 12 5 14 0
19 -2 13 -5z m2249 -35 c-9 -9 -12 -7 -12 12 0 19 3 21 12 12 9 -9 9 -15 0
-24z m101 6 c-4 -10 -9 -12 -15 -6 -12 12 -1 35 12 27 5 -3 6 -13 3 -21z m358
-44 c5 0 9 -7 9 -15 0 -8 7 -15 15 -15 20 0 19 10 -2 26 -25 17 -10 28 16 12
26 -16 26 -23 2 -49 -18 -20 -20 -20 -29 -2 -10 16 -12 16 -32 -10 -24 -30
-40 -35 -40 -11 0 10 6 14 14 11 10 -4 13 -1 9 9 -3 8 1 14 11 14 21 0 20 6
-4 30 -24 24 -30 25 -30 4 0 -17 -22 -14 -28 4 -2 7 3 12 12 12 9 0 16 5 16
10 0 6 -5 10 -11 10 -14 0 -39 -25 -39 -39 0 -12 -13 -15 -23 -4 -4 4 7 21 25
39 l32 32 34 -34 c19 -19 38 -34 43 -34z m29 55 c0 -8 7 -15 15 -15 8 0 15 -4
15 -10 0 -14 -13 -13 -29 3 -11 10 -14 10 -18 0 -6 -15 -33 -17 -33 -3 0 6 7
10 15 10 8 0 15 7 15 15 0 8 5 15 10 15 6 0 10 -7 10 -15z m-1810 -5 c0 -5 -5
-10 -11 -10 -5 0 -7 5 -4 10 3 6 8 10 11 10 2 0 4 -4 4 -10z m1280 -5 c0 -8
-4 -15 -10 -15 -5 0 -10 7 -10 15 0 8 5 15 10 15 6 0 10 -7 10 -15z m100 8 c0
-10 -32 -43 -42 -43 -4 0 -8 7 -8 16 0 10 6 14 15 10 9 -3 15 0 15 9 0 8 5 15
10 15 6 0 10 -3 10 -7z m153 -7 c17 -13 23 -36 9 -36 -8 0 -42 37 -42 45 0 9
15 5 33 -9z m46 -3 c11 -9 18 -21 14 -25 -5 -10 -43 19 -43 34 0 12 8 10 29
-9z m311 -14 c0 -5 -7 -9 -15 -9 -15 0 -20 12 -9 23 8 8 24 -1 24 -14z m-752
-30 c-2 -6 -8 -10 -13 -10 -5 0 -11 4 -13 10 -2 6 4 11 13 11 9 0 15 -5 13
-11z m142 4 c0 -5 -12 -20 -25 -35 -24 -28 -45 -36 -45 -18 0 6 7 10 15 10 8
0 15 5 15 10 0 13 22 39 33 40 4 0 7 -3 7 -7z m425 -33 c7 0 15 6 18 13 2 6 7
9 11 5 10 -8 -25 -49 -36 -42 -4 3 -8 -2 -8 -10 0 -9 -4 -16 -10 -16 -5 0 -10
-7 -10 -15 0 -8 -4 -15 -10 -15 -16 0 -12 19 10 42 22 24 26 38 10 38 -5 0
-10 -7 -10 -15 0 -8 -4 -15 -10 -15 -15 0 -12 17 8 40 14 17 18 18 20 5 2 -8
10 -15 17 -15z m-515 -20 c0 -5 -7 -10 -15 -10 -8 0 -15 5 -15 10 0 6 7 10 15
10 8 0 15 -4 15 -10z m650 -15 c0 -8 -4 -15 -10 -15 -5 0 -10 7 -10 15 0 8 5
15 10 15 6 0 10 -7 10 -15z m-101 -41 c29 -26 45 -60 32 -68 -4 -3 -36 -6 -72
-7 -54 -2 -201 -38 -261 -64 -26 -10 -22 9 7 42 20 23 26 26 34 13 6 -8 14
-11 18 -6 4 5 2 11 -4 13 -18 6 -16 23 2 23 8 0 15 -4 15 -10 0 -5 5 -10 10
-10 6 0 9 6 8 13 -2 6 4 12 12 12 8 0 14 -6 12 -14 -3 -12 0 -12 13 -1 9 7 40
13 75 12 36 0 58 4 54 10 -3 5 2 15 11 22 16 12 16 13 1 19 -17 7 -22 27 -6
27 6 0 23 -12 39 -26z m-102 -28 c-15 -15 -37 -22 -37 -11 0 15 35 44 43 36 6
-6 4 -16 -6 -25z m44 3 c-30 -28 -47 -23 -20 5 13 14 27 22 32 19 5 -3 -1 -14
-12 -24z m-367 5 c9 -24 7 -27 -9 -10 -17 17 -19 26 -6 26 5 0 12 -7 15 -16z
m199 2 c21 -16 22 -26 1 -26 -8 0 -12 5 -9 10 3 6 -1 10 -9 10 -9 0 -16 5 -16
10 0 13 11 12 33 -4z m-28 -16 c3 -5 -3 -10 -15 -10 -12 0 -18 5 -15 10 3 6
10 10 15 10 5 0 12 -4 15 -10z m95 0 c0 -5 -7 -10 -15 -10 -8 0 -15 5 -15 10
0 6 7 10 15 10 8 0 15 -4 15 -10z m-560 -35 c0 -8 7 -15 16 -15 8 0 13 4 9 9
-6 10 13 26 21 18 8 -8 -20 -47 -33 -47 -19 0 -16 -17 4 -24 12 -5 13 -10 5
-18 -8 -8 -16 -6 -29 7 -16 17 -18 17 -21 2 -2 -9 -8 -17 -13 -17 -17 0 -9 19
18 40 25 20 26 22 10 31 -10 6 -15 14 -12 20 9 14 25 11 25 -6z m120 -21 c0
-8 5 -12 10 -9 6 3 10 3 10 -2 0 -4 16 -26 35 -48 35 -39 46 -63 24 -49 -7 4
-10 1 -7 -7 3 -8 10 -14 16 -14 13 0 16 -9 10 -27 -3 -7 -10 -4 -21 6 -15 16
-19 16 -32 2 -8 -8 -15 -19 -15 -25 0 -6 -6 -11 -13 -11 -15 0 -41 40 -31 48
4 4 9 1 11 -5 6 -17 21 -16 39 2 12 12 12 18 2 35 -14 21 -38 27 -38 9 0 -17
-29 -41 -41 -33 -7 4 -1 15 17 31 22 18 25 26 15 32 -9 6 -11 17 -6 32 7 23 6
23 -7 5 -10 -13 -17 -15 -22 -8 -4 7 -4 16 -1 22 3 6 -1 7 -9 4 -21 -8 -20
-20 1 -28 12 -5 13 -10 6 -17 -8 -8 -17 -6 -32 8 l-20 19 20 17 c12 11 28 15
40 12 11 -4 19 -2 19 4 0 6 5 11 10 11 6 0 10 -7 10 -16z m-245 -46 c18 -20
24 -33 17 -36 -7 -2 -12 -9 -12 -16 0 -7 -8 -20 -18 -29 -17 -15 -19 -15 -35
3 -9 11 -17 23 -17 26 0 13 31 35 41 29 8 -5 8 -10 0 -18 -14 -14 -14 -27 -1
-27 6 0 10 7 10 15 0 8 5 15 10 15 6 0 10 5 10 10 0 6 -7 10 -16 10 -10 0 -14
6 -11 14 4 10 1 13 -9 9 -8 -3 -14 1 -14 11 0 24 14 19 45 -16z m-72 -70 c40
-40 53 -48 55 -35 2 9 8 17 13 17 15 0 10 -16 -10 -34 -19 -17 -21 -16 -52 13
-33 32 -49 39 -49 21 0 -5 -4 -10 -10 -10 -14 0 -12 27 3 34 10 5 10 7 0 12
-13 6 -19 34 -8 34 3 0 29 -23 58 -52z m7 44 c0 -13 -12 -22 -22 -16 -10 6 -1
24 13 24 5 0 9 -4 9 -8z m190 1 c-1 -10 -76 -93 -84 -93 -11 0 -6 20 11 39 9
11 20 18 25 15 4 -3 8 1 8 8 0 15 19 38 32 38 4 0 8 -3 8 -7z m54 -5 c5 -10 7
-10 12 0 5 12 34 18 34 7 0 -3 -9 -15 -20 -27 -17 -19 -20 -19 -26 -5 -3 10
-13 17 -21 17 -8 0 -11 -5 -8 -10 3 -6 -1 -13 -10 -16 -15 -6 -15 -8 0 -24 10
-11 12 -20 6 -24 -5 -4 -13 0 -18 8 -6 12 -14 9 -40 -15 -30 -26 -47 -59 -24
-44 5 3 13 0 16 -6 11 -17 -3 -23 -20 -9 -12 10 -18 10 -30 0 -9 -7 -19 -10
-23 -6 -4 4 2 14 12 22 20 14 20 14 0 28 -10 8 -15 18 -11 23 5 4 15 -1 23
-12 14 -19 16 -19 25 -2 6 9 14 15 20 12 5 -4 9 1 9 10 0 9 5 13 10 10 6 -3
10 1 10 11 0 15 47 64 62 64 3 0 9 -6 12 -12z m-394 -53 c0 -3 -9 -15 -20 -27
-16 -18 -20 -19 -20 -6 0 9 6 19 13 22 10 5 10 7 0 12 -7 3 -13 15 -13 27 l0
21 20 -22 c11 -12 20 -24 20 -27z m390 10 c0 -8 7 -15 16 -15 9 0 14 -6 11
-12 -2 -7 -10 -12 -16 -10 -6 1 -11 -5 -11 -13 0 -8 7 -15 15 -15 8 0 15 7 15
15 0 8 5 15 10 15 6 0 10 -5 10 -11 0 -7 8 -18 18 -25 16 -13 16 -13 0 -14
-22 0 -24 -30 -2 -30 8 0 13 4 10 9 -7 10 32 47 40 38 3 -3 -7 -20 -24 -38
l-30 -32 -22 21 c-21 19 -21 21 -3 30 10 6 14 14 9 19 -5 4 -11 2 -13 -4 -3
-7 -11 -13 -18 -13 -7 0 -15 6 -18 13 -3 8 -9 7 -19 -6 -13 -18 -14 -17 -33 3
-14 16 -16 23 -7 32 9 9 12 8 12 -5 0 -24 23 -21 39 5 10 16 10 23 2 26 -14 5
-15 32 -1 32 6 0 10 -7 10 -15z m91 -8 c-13 -13 -26 -3 -16 12 3 6 11 8 17 5
6 -4 6 -10 -1 -17z m-233 2 c-2 -6 -8 -10 -13 -10 -5 0 -11 4 -13 10 -2 6 4
11 13 11 9 0 15 -5 13 -11z m-312 -33 c22 -23 17 -42 -6 -21 -19 17 -26 35
-14 35 3 0 12 -6 20 -14z m98 2 c5 -10 7 -10 12 0 3 6 12 12 20 12 9 0 12 -4
9 -10 -8 -13 1 -13 24 1 15 10 26 5 72 -39 43 -41 51 -54 41 -64 -9 -9 -12 -9
-12 5 0 9 -7 17 -16 17 -10 0 -14 6 -10 15 8 21 -11 19 -23 -2 -9 -17 -11 -16
-30 1 -19 17 -21 17 -21 3 0 -10 7 -17 15 -17 8 0 15 -7 15 -15 0 -20 -13 -19
-34 4 -10 11 -14 25 -9 37 6 16 4 17 -9 7 -12 -11 -18 -9 -33 7 -10 11 -25 20
-33 20 -12 0 -11 -3 4 -14 10 -8 16 -18 12 -22 -4 -4 -15 -1 -23 6 -13 11 -18
10 -30 -6 -13 -18 -14 -18 -15 -1 0 20 39 65 57 66 6 1 14 -5 17 -11z m186
-43 c0 -8 -4 -15 -9 -15 -13 0 -22 16 -14 24 11 11 23 6 23 -9z m96 -1 c-4
-12 -2 -15 9 -10 9 3 15 0 15 -9 0 -18 -12 -19 -28 -3 -15 15 -16 38 -1 38 6
0 8 -7 5 -16z m-277 -40 c-10 -13 -10 -17 0 -23 10 -7 9 -13 -5 -29 -10 -12
-21 -19 -26 -16 -4 3 -5 -2 -2 -10 3 -9 1 -16 -4 -16 -23 0 -21 19 4 39 l26
21 -23 19 c-19 16 -25 17 -27 5 -5 -19 -16 -18 -37 6 -21 23 -13 39 10 20 12
-10 18 -10 30 0 14 11 19 7 16 -12 -2 -14 28 4 34 20 5 12 9 13 12 4 3 -7 -1
-20 -8 -28z m351 21 c0 -8 -4 -15 -9 -15 -13 0 -22 16 -14 24 11 11 23 6 23
-9z m-508 -30 c0 -5 -5 -11 -11 -13 -6 -2 -11 4 -11 13 0 9 5 15 11 13 6 -2
11 -8 11 -13z m217 -15 c6 0 11 -4 11 -10 0 -5 -7 -10 -15 -10 -8 0 -15 -4
-15 -10 0 -5 -7 -10 -15 -10 -8 0 -15 -5 -15 -11 0 -15 -28 -41 -40 -37 -11 3
29 50 57 67 17 11 17 11 0 22 -9 5 -14 15 -11 21 5 7 11 5 19 -5 7 -10 17 -17
24 -17z m91 5 c23 -24 47 -35 35 -16 -3 5 -1 12 4 15 19 12 20 -12 2 -28 -18
-17 -21 -16 -50 10 -30 27 -39 44 -23 44 5 0 19 -11 32 -25z m80 15 c0 -5 -4
-10 -10 -10 -5 0 -10 5 -10 10 0 6 5 10 10 10 6 0 10 -4 10 -10z m50 0 c0 -5
-4 -10 -10 -10 -5 0 -10 5 -10 10 0 6 5 10 10 10 6 0 10 -4 10 -10z m50 0 c0
-5 -6 -10 -13 -10 -8 0 -14 -7 -14 -15 0 -8 4 -12 8 -9 4 2 12 -3 17 -13 9
-15 12 -14 34 12 17 20 29 26 39 20 11 -7 8 -10 -10 -15 -23 -5 -23 -6 -6 -23
9 -10 14 -21 10 -25 -4 -4 -10 -1 -12 6 -6 16 -21 15 -39 -2 -17 -18 -18 -32
-1 -40 10 -5 10 -7 0 -12 -7 -3 -13 -10 -13 -16 0 -12 -26 -38 -38 -38 -6 0
-12 6 -15 13 -3 8 -9 6 -19 -7 -15 -19 -15 -19 -26 0 -6 10 -14 15 -19 10 -4
-5 -2 -11 5 -13 17 -7 15 -21 -8 -45 -17 -19 -20 -19 -20 -5 0 9 5 17 10 17 6
0 10 7 10 15 0 8 -7 15 -15 15 -8 0 -15 5 -15 10 0 6 7 10 15 10 8 0 15 6 15
14 0 8 6 16 13 19 6 2 8 8 4 13 -5 5 -13 1 -18 -9 -6 -9 -14 -15 -20 -12 -14
9 -11 25 6 25 8 0 15 7 15 15 0 8 5 15 10 15 6 0 10 -7 10 -15 0 -8 7 -15 15
-15 8 0 15 7 15 16 0 8 -4 13 -9 9 -5 -3 -13 0 -16 6 -11 17 3 23 20 9 9 -7
18 -10 22 -7 3 4 -6 16 -21 28 -23 18 -28 48 -5 33 5 -3 7 -10 4 -15 -4 -5 -1
-9 5 -9 6 0 20 -9 32 -20 12 -11 25 -20 30 -20 16 0 7 16 -21 34 -26 18 -27
21 -12 38 17 19 41 24 41 8z m50 0 c0 -5 -7 -10 -15 -10 -8 0 -15 -4 -15 -10
0 -5 -7 -10 -17 -10 -14 0 -14 2 2 20 19 21 45 27 45 10z m-460 -30 c0 -5 -7
-10 -15 -10 -8 0 -15 5 -15 10 0 6 7 10 15 10 8 0 15 -4 15 -10z m223 -30 c22
-22 37 -44 33 -47 -4 -4 -11 -1 -16 7 -5 8 -12 11 -17 6 -4 -4 0 -12 10 -17 9
-6 15 -14 12 -20 -9 -14 -25 -11 -25 6 0 8 -6 15 -14 15 -8 0 -17 6 -20 13 -5
10 -7 10 -12 0 -7 -16 -34 -17 -34 -3 0 6 7 13 15 16 20 8 19 24 -1 24 -8 0
-13 -4 -9 -9 6 -11 -13 -26 -23 -17 -5 6 45 64 57 65 2 1 21 -17 44 -39z m87
12 c0 -14 -36 -43 -43 -35 -4 3 1 14 11 24 19 19 32 24 32 11z m-167 -84 c-2
-5 4 -8 12 -8 8 0 15 7 15 15 0 8 5 15 10 15 14 0 12 -28 -2 -32 -8 -3 -2 -14
17 -30 17 -15 27 -30 23 -34 -4 -4 -31 16 -58 44 -47 48 -74 65 -67 43 1 -5
-1 -9 -5 -10 -13 -2 -12 3 2 26 l14 22 21 -22 c11 -12 19 -25 18 -29z m77 -19
c0 -5 -7 -9 -15 -9 -15 0 -20 12 -9 23 8 8 24 -1 24 -14z m142 -44 c0 -5 -5
-11 -11 -13 -6 -2 -11 4 -11 13 0 9 5 15 11 13 6 -2 11 -8 11 -13z"/>
<path d="M3025 2430 c-52 -11 -76 -30 -96 -73 -22 -49 -24 -115 -6 -160 14
-33 47 -68 47 -49 0 6 -4 13 -8 16 -5 3 -9 34 -10 70 -2 63 -1 67 36 104 20
22 52 45 71 51 42 14 54 14 46 1 -3 -5 0 -7 8 -4 8 3 22 -2 31 -11 9 -9 16
-12 16 -7 0 30 -91 72 -135 62z"/>
<path d="M3021 2314 c-23 -30 -27 -80 -9 -118 11 -25 16 -28 71 -40 15 -4 25
-11 22 -16 -3 -5 1 -7 9 -4 12 5 13 11 5 25 -7 15 -6 19 5 19 8 0 16 -5 18
-12 3 -9 3 68 -1 108 -1 6 -12 23 -26 38 -31 34 -67 34 -94 0z"/>
<path d="M3160 2225 c0 -8 4 -15 10 -15 5 0 7 7 4 15 -4 8 -8 15 -10 15 -2 0
-4 -7 -4 -15z"/>
<path d="M3005 2150 c3 -5 8 -10 11 -10 2 0 4 5 4 10 0 6 -5 10 -11 10 -5 0
-7 -4 -4 -10z"/>
<path d="M3008 2123 c7 -3 16 -2 19 1 4 3 -2 6 -13 5 -11 0 -14 -3 -6 -6z"/>
<path d="M2765 1870 c6 -10 4 -12 -11 -6 -15 6 -17 5 -6 -5 9 -9 15 -10 23 -2
8 8 7 13 -2 18 -8 6 -10 4 -4 -5z"/>
<path d="M2782 1844 c-14 -16 -5 -18 17 -5 7 5 9 11 5 14 -5 3 -15 -1 -22 -9z"/>
<path d="M1335 2485 c2 -22 12 -91 20 -154 8 -63 17 -117 20 -120 9 -8 25 22
20 36 -2 7 -12 66 -20 130 -10 71 -22 124 -31 133 -13 13 -14 10 -9 -25z"/>
<path d="M1495 2092 c-74 -24 -106 -102 -71 -171 17 -32 46 -59 46 -43 0 6 -4
14 -10 17 -5 3 -10 11 -10 17 0 6 12 1 27 -13 l27 -24 -26 32 c-14 17 -25 40
-24 50 5 42 19 73 35 73 14 0 14 2 1 10 -12 8 -9 10 13 10 15 0 27 5 27 10 0
14 43 13 58 -2 8 -8 12 -8 12 -1 0 11 -60 44 -77 42 -4 -1 -17 -4 -28 -7z"/>
<path d="M1540 2056 c0 -2 9 -6 20 -9 11 -3 18 -1 14 4 -5 9 -34 13 -34 5z"/>
<path d="M1595 2030 c-3 -5 -1 -10 4 -10 6 0 11 5 11 10 0 6 -2 10 -4 10 -3 0
-8 -4 -11 -10z"/>
<path d="M1513 2018 c-19 -9 -23 -19 -23 -53 0 -53 24 -78 72 -73 32 3 33 5
36 50 2 37 -1 51 -17 67 -23 23 -35 25 -68 9z"/>
<path d="M1615 1963 c3 -69 -17 -95 -69 -91 -24 1 -39 -1 -36 -7 9 -18 70 -8
94 14 19 18 24 33 25 77 0 30 -3 54 -8 54 -4 0 -7 -21 -6 -47z"/>
<path d="M2171 2287 c-107 -38 -114 -229 -10 -283 91 -46 189 23 189 135 0
109 -86 181 -179 148z m119 -136 c19 -37 -23 -107 -56 -94 -27 10 7 113 37
113 5 0 13 -9 19 -19z"/>
<path d="M4090 1476 c0 -8 -6 -17 -12 -20 -10 -5 -10 -7 0 -12 6 -3 12 -12 12
-20 0 -8 7 -14 15 -14 8 0 15 7 15 15 0 8 -7 15 -15 15 -8 0 -15 5 -15 10 0 6
7 10 15 10 8 0 15 7 15 15 0 8 -7 15 -15 15 -8 0 -15 -6 -15 -14z"/>
<path d="M3876 1444 c-4 -12 -2 -15 9 -10 18 7 21 -20 3 -28 -10 -5 -10 -7 0
-12 6 -3 12 -12 12 -20 0 -8 6 -14 14 -14 8 0 16 -6 19 -12 2 -8 8 -9 13 -4 5
5 4 11 -3 13 -7 3 -13 11 -13 19 0 8 -7 14 -15 14 -8 0 -15 5 -15 10 0 6 7 10
15 10 20 0 19 6 -5 30 -24 24 -26 24 -34 4z"/>
<path d="M3677 1693 c3 -8 1 -18 -5 -22 -7 -4 -6 -12 4 -25 7 -11 17 -16 21
-12 4 4 1 12 -7 17 -11 8 -12 12 -2 16 17 7 15 30 -2 36 -10 4 -13 1 -9 -10z"/>
<path d="M3710 1659 c0 -5 5 -7 10 -4 6 3 10 8 10 11 0 2 -4 4 -10 4 -5 0 -10
-5 -10 -11z"/>
<path d="M3780 1456 c0 -2 7 -9 15 -16 12 -10 15 -10 15 4 0 9 -7 16 -15 16
-8 0 -15 -2 -15 -4z"/>
<path d="M4113 1691 c-27 -23 -28 -27 -7 -35 12 -4 15 -2 10 9 -3 9 0 15 9 15
8 0 15 7 15 15 0 19 0 19 -27 -4z"/>
<path d="M4330 1681 c0 -7 -7 -19 -15 -28 -9 -8 -13 -18 -10 -21 3 -3 15 4 27
16 17 17 20 24 10 34 -9 9 -12 9 -12 -1z"/>
<path d="M4253 1393 c-17 -6 -17 -30 0 -30 7 0 13 9 13 19 0 10 0 18 -1 17 0
0 -6 -3 -12 -6z"/>
<path d="M3660 1275 c0 -8 5 -15 11 -15 7 0 20 -10 30 -22 11 -11 22 -18 26
-15 3 4 -4 15 -15 26 -12 10 -22 23 -22 30 0 6 -7 11 -15 11 -8 0 -15 -7 -15
-15z"/>
<path d="M3305 1150 c-3 -6 1 -10 9 -10 9 0 16 -4 16 -10 0 -5 5 -10 10 -10
16 0 11 14 -10 27 -12 8 -21 9 -25 3z"/>
<path d="M3520 989 c0 -14 -25 -39 -39 -39 -6 0 -11 -7 -11 -15 0 -8 7 -15 15
-15 8 0 15 5 15 11 0 14 25 39 39 39 6 0 11 -4 11 -10 0 -5 -7 -10 -15 -10 -8
0 -15 -7 -15 -15 0 -8 7 -15 15 -15 8 0 15 6 15 14 0 8 6 17 13 20 10 5 10 7
0 12 -7 3 -13 12 -13 20 0 8 -7 14 -15 14 -8 0 -15 -5 -15 -11z"/>
<path d="M3330 1030 c0 -5 5 -10 10 -10 6 0 10 -7 10 -15 0 -8 7 -15 15 -15 8
0 15 7 15 15 0 8 -7 15 -15 15 -8 0 -15 5 -15 10 0 6 -4 10 -10 10 -5 0 -10
-4 -10 -10z"/>
<path d="M3834 3572 c-12 -10 -27 -29 -34 -42 -14 -27 -70 -97 -133 -168 -21
-24 -37 -45 -34 -48 2 -2 22 0 43 5 21 5 31 9 22 10 -10 1 -18 4 -18 9 0 4 35
50 76 102 95 119 118 150 107 150 -4 -1 -17 -9 -29 -18z"/>
<path d="M5327 3424 c19 -20 32 -41 30 -47 -2 -6 -104 -87 -227 -180 -122 -93
-219 -164 -215 -156 4 8 -27 -20 -69 -61 -125 -122 -125 -123 211 135 136 105
265 202 285 218 21 15 38 33 38 40 0 13 -70 87 -82 87 -3 0 10 -16 29 -36z"/>
<path d="M573 3203 c9 -11 17 -33 17 -50 0 -55 -62 -83 -102 -46 -17 15 -18
15 -13 1 4 -9 19 -21 35 -28 78 -32 140 85 68 129 -22 13 -23 13 -5 -6z"/>
<path d="M500 3169 c-9 -15 -8 -24 1 -35 27 -33 79 1 58 39 -14 23 -46 21 -59
-4z"/>
<path d="M5561 2802 l-1 -43 -207 1 c-157 1 -221 -3 -263 -14 l-55 -16 90 5
c50 3 172 7 273 11 l182 6 -1 27 c0 14 -4 35 -9 46 -7 15 -9 10 -9 -23z"/>
<path d="M445 1965 c-6 -54 -8 -57 -51 -78 -24 -11 -44 -25 -44 -29 0 -5 20
-17 44 -28 42 -17 45 -22 56 -74 l11 -55 37 41 c34 37 39 40 77 35 23 -4 49
-9 59 -13 14 -6 13 2 -10 43 l-28 50 21 51 c12 29 19 52 15 52 -4 -1 -27 -5
-52 -10 -44 -8 -46 -7 -86 32 l-41 40 -8 -57z m105 -43 c25 4 30 2 24 -11 -10
-21 -9 -62 1 -85 7 -17 5 -18 -21 -13 -22 4 -35 0 -56 -21 l-28 -26 0 26 c0
29 -23 58 -46 58 -22 0 -16 19 10 31 16 8 26 23 31 46 l6 35 24 -22 c17 -16
32 -21 55 -18z"/>
<path d="M3571 1721 c-8 -5 -9 -11 -3 -15 5 -3 12 1 16 9 6 17 6 18 -13 6z"/>
<path d="M3510 1660 c0 -5 5 -10 10 -10 6 0 10 5 10 10 0 6 -4 10 -10 10 -5 0
-10 -4 -10 -10z"/>
<path d="M3560 1660 c0 -5 5 -10 10 -10 6 0 10 5 10 10 0 6 -4 10 -10 10 -5 0
-10 -4 -10 -10z"/>
<path d="M3540 1640 c0 -5 5 -10 11 -10 5 0 7 5 4 10 -3 6 -8 10 -11 10 -2 0
-4 -4 -4 -10z"/>
<path d="M5050 1625 c19 -7 132 -49 250 -93 118 -44 238 -89 266 -100 l52 -21
11 44 c6 24 11 46 11 48 0 2 -28 10 -62 16 -35 7 -172 37 -306 67 -134 30
-246 54 -250 53 -4 0 9 -6 28 -14z"/>
<path d="M3470 1610 c0 -5 5 -10 10 -10 6 0 10 5 10 10 0 6 -4 10 -10 10 -5 0
-10 -4 -10 -10z"/>
<path d="M3382 1570 c-7 -11 -9 -20 -4 -20 4 0 13 9 20 20 7 11 9 20 4 20 -4
0 -13 -9 -20 -20z"/>
<path d="M4435 1580 c-3 -5 -2 -10 4 -10 5 0 13 5 16 10 3 6 2 10 -4 10 -5 0
-13 -4 -16 -10z"/>
<path d="M3325 1560 c-3 -5 -1 -10 4 -10 6 0 11 5 11 10 0 6 -2 10 -4 10 -3 0
-8 -4 -11 -10z"/>
<path d="M3420 1560 c0 -5 5 -10 10 -10 6 0 10 5 10 10 0 6 -4 10 -10 10 -5 0
-10 -4 -10 -10z"/>
<path d="M4460 1564 c0 -6 6 -16 13 -23 10 -11 10 -14 0 -18 -7 -3 -13 -9 -13
-15 0 -15 30 -41 38 -33 4 4 1 10 -5 12 -14 5 -18 33 -5 33 4 0 13 -5 20 -12
6 -6 13 -10 15 -7 1 2 -12 19 -30 38 -18 19 -33 30 -33 25z"/>
<path d="M3486 1484 c-15 -19 -22 -32 -15 -28 17 7 64 64 52 63 -4 0 -21 -16
-37 -35z"/>
<path d="M3345 1490 c3 -5 8 -10 11 -10 2 0 4 5 4 10 0 6 -5 10 -11 10 -5 0
-7 -4 -4 -10z"/>
<path d="M3395 1490 c3 -5 11 -10 16 -10 6 0 7 5 4 10 -3 6 -11 10 -16 10 -6
0 -7 -4 -4 -10z"/>
<path d="M4390 1480 c0 -5 5 -10 11 -10 5 0 7 5 4 10 -3 6 -8 10 -11 10 -2 0
-4 -4 -4 -10z"/>
<path d="M4530 1480 c0 -5 5 -10 10 -10 6 0 10 5 10 10 0 6 -4 10 -10 10 -5 0
-10 -4 -10 -10z"/>
<path d="M3376 1467 c3 -10 9 -15 12 -12 3 3 0 11 -7 18 -10 9 -11 8 -5 -6z"/>
<path d="M3180 1464 c0 -10 31 -36 37 -31 3 3 -2 13 -10 22 -16 15 -27 19 -27
9z"/>
<path d="M3230 1464 c0 -7 27 -34 34 -34 13 0 5 16 -14 28 -11 7 -20 10 -20 6z"/>
<path d="M3280 1460 c0 -5 5 -10 11 -10 5 0 7 5 4 10 -3 6 -8 10 -11 10 -2 0
-4 -4 -4 -10z"/>
<path d="M3325 1460 c-3 -5 1 -10 9 -10 16 0 21 -12 9 -23 -3 -4 -13 -1 -21 6
-13 10 -14 9 -2 -9 13 -21 13 -21 32 -2 11 11 18 21 16 22 -1 1 -10 7 -20 14
-11 9 -18 10 -23 2z"/>
<path d="M3145 1444 c9 -9 19 -13 23 -10 3 4 0 11 -8 16 -24 15 -33 11 -15 -6z"/>
<path d="M3495 1440 c-10 -11 -14 -20 -9 -20 5 0 15 9 22 20 7 11 11 20 9 20
-2 0 -12 -9 -22 -20z"/>
<path d="M3400 1445 c0 -3 9 -16 20 -28 11 -12 18 -27 16 -34 -3 -7 -1 -13 4
-13 6 0 10 9 10 20 0 11 -4 20 -9 20 -5 0 -13 9 -16 20 -6 18 -25 29 -25 15z"/>
<path d="M4580 1440 c0 -5 5 -10 11 -10 5 0 7 5 4 10 -3 6 -8 10 -11 10 -2 0
-4 -4 -4 -10z"/>
<path d="M4485 1430 c3 -5 8 -10 11 -10 2 0 4 5 4 10 0 6 -5 10 -11 10 -5 0
-7 -4 -4 -10z"/>
<path d="M3230 1414 c0 -8 5 -12 10 -9 6 4 8 11 5 16 -9 14 -15 11 -15 -7z"/>
<path d="M3271 1410 c-13 -11 -19 -20 -14 -20 6 0 18 9 28 20 23 25 17 25 -14
0z"/>
<path d="M3518 1423 c7 -3 16 -2 19 1 4 3 -2 6 -13 5 -11 0 -14 -3 -6 -6z"/>
<path d="M3190 1405 c7 -8 17 -15 22 -15 5 0 3 7 -6 15 -8 8 -18 15 -22 15 -3
0 -1 -7 6 -15z"/>
<path d="M3367 1408 c-9 -5 -17 -13 -17 -19 0 -5 9 -4 19 3 15 9 23 9 35 -1 9
-8 16 -9 16 -5 0 17 -36 32 -53 22z"/>
<path d="M4460 1410 c0 -5 5 -10 11 -10 5 0 7 5 4 10 -3 6 -8 10 -11 10 -2 0
-4 -4 -4 -10z"/>
<path d="M3147 1399 c7 -7 15 -10 18 -7 3 3 -2 9 -12 12 -14 6 -15 5 -6 -5z"/>
<path d="M3460 1392 c0 -14 2 -15 10 -2 7 12 12 12 22 2 15 -15 25 -15 25 1 0
6 -13 13 -29 14 -21 2 -28 -2 -28 -15z"/>
<path d="M4410 1399 c0 -5 5 -7 10 -4 6 3 10 8 10 11 0 2 -4 4 -10 4 -5 0 -10
-5 -10 -11z"/>
<path d="M4650 1390 c-9 -6 -10 -10 -3 -10 6 0 15 5 18 10 8 12 4 12 -15 0z"/>
<path d="M4390 1380 c0 -5 5 -10 11 -10 5 0 7 5 4 10 -3 6 -8 10 -11 10 -2 0
-4 -4 -4 -10z"/>
<path d="M3375 1370 c-3 -5 -1 -10 4 -10 6 0 11 5 11 10 0 6 -2 10 -4 10 -3 0
-8 -4 -11 -10z"/>
<path d="M4670 1370 c-9 -6 -10 -10 -3 -10 6 0 15 5 18 10 8 12 4 12 -15 0z"/>
<path d="M2143 1280 l-113 -90 -60 44 c-115 85 -246 120 -450 120 -164 0 -294
-21 -484 -79 -126 -38 -286 -111 -286 -130 0 -8 12 -22 27 -33 27 -19 27 -19
82 6 169 75 470 162 561 162 93 -1 280 -99 366 -192 72 -78 72 -76 -2 -149
-35 -35 -64 -66 -64 -70 0 -3 28 0 63 8 34 8 76 12 94 10 23 -4 36 0 49 14 9
10 15 21 13 23 -2 3 -43 -3 -92 -13 -48 -10 -87 -15 -87 -11 0 18 375 370 394
370 11 0 -77 -110 -160 -199 -41 -43 -74 -82 -74 -86 0 -7 26 -4 130 11 l35 5
-51 -48 c-135 -128 -242 -223 -251 -223 -5 0 -33 -29 -61 -65 -29 -36 -50 -65
-46 -65 8 0 112 87 171 144 61 58 69 45 55 -91 -15 -145 -60 -291 -137 -444
-59 -118 -62 -126 -49 -152 8 -15 16 -27 18 -27 2 0 33 44 69 98 82 120 206
264 275 317 40 30 55 49 63 79 43 159 50 283 22 418 -9 46 -19 85 -22 88 -3 3
-16 24 -29 47 l-23 42 91 119 c126 167 123 170 -37 42z"/>
<path d="M3080 1359 c0 -5 5 -7 10 -4 6 3 10 8 10 11 0 2 -4 4 -10 4 -5 0 -10
-5 -10 -11z"/>
<path d="M3266 1355 c-11 -8 -16 -15 -10 -15 5 0 18 7 28 15 11 8 16 15 10 15
-5 0 -18 -7 -28 -15z"/>
<path d="M3452 1351 c-11 -7 -11 -9 2 -14 10 -4 16 -1 16 8 0 17 -1 17 -18 6z"/>
<path d="M2960 1340 c0 -5 5 -10 11 -10 5 0 7 5 4 10 -3 6 -8 10 -11 10 -2 0
-4 -4 -4 -10z"/>
<path d="M5320 1330 c24 -24 25 -48 4 -79 -14 -19 -24 -22 -56 -19 -34 3 -37
2 -22 -9 44 -32 107 1 107 55 0 30 -26 72 -45 72 -4 0 1 -9 12 -20z"/>
<path d="M4725 1330 c3 -5 11 -10 16 -10 6 0 7 5 4 10 -3 6 -11 10 -16 10 -6
0 -7 -4 -4 -10z"/>
<path d="M3096 1308 c10 -14 21 -24 23 -22 3 3 -6 15 -18 27 l-24 22 19 -27z"/>
<path d="M3131 1314 c0 -11 3 -14 6 -6 3 7 2 16 -1 19 -3 4 -6 -2 -5 -13z"/>
<path d="M3461 1294 c0 -11 3 -14 6 -6 3 7 2 16 -1 19 -3 4 -6 -2 -5 -13z"/>
<path d="M3157 1293 c-4 -3 -7 -11 -7 -17 0 -6 5 -5 12 2 6 6 9 14 7 17 -3 3
-9 2 -12 -2z"/>
<path d="M3131 1264 c0 -11 3 -14 6 -6 3 7 2 16 -1 19 -3 4 -6 -2 -5 -13z"/>
<path d="M3180 1270 c0 -5 5 -10 10 -10 6 0 10 5 10 10 0 6 -4 10 -10 10 -5 0
-10 -4 -10 -10z"/>
<path d="M3230 1270 c0 -5 5 -10 10 -10 6 0 10 5 10 10 0 6 -4 10 -10 10 -5 0
-10 -4 -10 -10z"/>
<path d="M2920 1239 c0 -5 5 -7 10 -4 6 3 10 8 10 11 0 2 -4 4 -10 4 -5 0 -10
-5 -10 -11z"/>
<path d="M3051 1234 c-7 -8 -10 -18 -6 -22 3 -3 10 0 15 8 7 12 11 12 25 0 14
-12 18 -12 26 1 5 8 8 19 8 24 0 6 -3 4 -6 -2 -6 -15 -33 -17 -33 -3 0 14 -13
12 -29 -6z"/>
<path d="M2890 1220 c0 -5 5 -10 11 -10 5 0 7 5 4 10 -3 6 -8 10 -11 10 -2 0
-4 -4 -4 -10z"/>
<path d="M2835 1200 c-10 -11 -14 -20 -9 -20 5 0 15 9 22 20 7 11 11 20 9 20
-2 0 -12 -9 -22 -20z"/>
<path d="M2870 1194 c0 -7 27 -34 34 -34 4 0 1 9 -6 20 -12 19 -28 27 -28 14z"/>
<path d="M2945 1170 c-3 -5 -1 -10 4 -10 6 0 11 5 11 10 0 6 -2 10 -4 10 -3 0
-8 -4 -11 -10z"/>
<path d="M2990 1170 c0 -5 5 -10 11 -10 5 0 7 5 4 10 -3 6 -8 10 -11 10 -2 0
-4 -4 -4 -10z"/>
<path d="M2730 1139 c0 -5 5 -7 10 -4 6 3 10 8 10 11 0 2 -4 4 -10 4 -5 0 -10
-5 -10 -11z"/>
<path d="M2770 1140 c0 -5 5 -10 10 -10 6 0 10 5 10 10 0 6 -4 10 -10 10 -5 0
-10 -4 -10 -10z"/>
<path d="M2870 1139 c0 -5 5 -7 10 -4 6 3 10 8 10 11 0 2 -4 4 -10 4 -5 0 -10
-5 -10 -11z"/>
<path d="M2788 1106 c-22 -16 -23 -26 -3 -26 8 0 15 -5 15 -12 0 -6 3 -8 6 -5
4 4 1 13 -6 22 -12 14 -7 19 13 16 5 -1 6 3 2 9 -8 12 -6 12 -27 -4z"/>
<path d="M2867 1099 c12 -12 24 -21 27 -18 2 2 -8 13 -22 23 l-27 19 22 -24z"/>
<path d="M2730 1090 c0 -5 5 -10 11 -10 5 0 7 5 4 10 -3 6 -8 10 -11 10 -2 0
-4 -4 -4 -10z"/>
<path d="M2920 1090 c0 -5 5 -10 10 -10 6 0 10 5 10 10 0 6 -4 10 -10 10 -5 0
-10 -4 -10 -10z"/>
<path d="M2460 1059 c0 -5 5 -7 10 -4 6 3 10 8 10 11 0 2 -4 4 -10 4 -5 0 -10
-5 -10 -11z"/>
<path d="M2735 1050 c-17 -18 -17 -20 -2 -14 9 3 17 10 17 15 0 5 5 9 10 9 14
0 12 -27 -2 -33 -10 -4 -10 -6 -1 -6 6 -1 15 4 18 9 5 8 12 7 23 -2 10 -7 6 0
-7 15 -29 32 -33 33 -56 7z"/>
<path d="M2878 1043 c6 -2 12 -11 12 -18 0 -7 -6 -15 -12 -17 -7 -3 1 -5 18
-5 l31 0 -20 24 c-11 13 -25 23 -31 22 -6 0 -5 -3 2 -6z"/>
<path d="M2848 1023 c7 -3 16 -2 19 1 4 3 -2 6 -13 5 -11 0 -14 -3 -6 -6z"/>
<path d="M2620 1005 c11 -14 12 -19 3 -22 -7 -3 -13 -9 -13 -14 0 -5 9 -4 20
3 25 16 25 20 -2 37 -22 13 -22 13 -8 -4z"/>
<path d="M2491 1001 c-8 -5 -9 -11 -3 -15 5 -3 12 1 16 9 6 17 6 18 -13 6z"/>
<path d="M3065 1000 c-3 -5 -1 -10 4 -10 6 0 11 5 11 10 0 6 -2 10 -4 10 -3 0
-8 -4 -11 -10z"/>
<path d="M2535 990 c-3 -5 -1 -10 4 -10 6 0 11 5 11 10 0 6 -2 10 -4 10 -3 0
-8 -4 -11 -10z"/>
<path d="M2680 990 c0 -5 5 -10 11 -10 5 0 7 5 4 10 -3 6 -8 10 -11 10 -2 0
-4 -4 -4 -10z"/>
<path d="M3140 980 c0 -5 5 -10 10 -10 6 0 10 5 10 10 0 6 -4 10 -10 10 -5 0
-10 -4 -10 -10z"/>
<path d="M2580 950 c0 -5 5 -10 10 -10 6 0 10 5 10 10 0 6 -4 10 -10 10 -5 0
-10 -4 -10 -10z"/>
<path d="M905 810 c-159 -66 -294 -121 -298 -122 -12 -5 24 -78 38 -78 6 0 63
30 126 66 62 37 182 105 264 152 132 74 180 104 165 101 -3 0 -135 -54 -295
-119z"/>
<path d="M3620 890 c0 -5 5 -10 10 -10 6 0 10 5 10 10 0 6 -4 10 -10 10 -5 0
-10 -4 -10 -10z"/>
<path d="M3620 840 c0 -5 5 -10 10 -10 6 0 10 5 10 10 0 6 -4 10 -10 10 -5 0
-10 -4 -10 -10z"/>
<path d="M2370 820 c0 -5 5 -10 11 -10 5 0 7 5 4 10 -3 6 -8 10 -11 10 -2 0
-4 -4 -4 -10z"/>
<path d="M3600 820 c0 -5 5 -10 11 -10 5 0 7 5 4 10 -3 6 -8 10 -11 10 -2 0
-4 -4 -4 -10z"/>
<path d="M3450 810 c0 -5 5 -10 10 -10 6 0 10 5 10 10 0 6 -4 10 -10 10 -5 0
-10 -4 -10 -10z"/>
<path d="M2264 782 c11 -12 20 -21 20 -20 1 2 8 12 16 23 14 19 14 19 -2 6
-15 -11 -21 -11 -35 0 -15 11 -14 9 1 -9z"/>
<path d="M3480 795 c0 -10 82 -87 87 -82 2 3 -14 24 -37 46 -41 40 -50 46 -50
36z"/>
<path d="M3610 780 c-8 -5 -11 -12 -8 -16 4 -3 14 1 23 10 18 17 9 21 -15 6z"/>
<path d="M2320 769 c0 -5 5 -7 10 -4 6 3 10 8 10 11 0 2 -4 4 -10 4 -5 0 -10
-5 -10 -11z"/>
<path d="M2275 720 c3 -5 8 -10 11 -10 2 0 4 5 4 10 0 6 -5 10 -11 10 -5 0 -7
-4 -4 -10z"/>
<path d="M2243 703 c4 -3 -1 -16 -10 -27 -13 -15 -10 -14 10 3 32 29 32 31 10
31 -9 0 -13 -3 -10 -7z"/>
<path d="M3600 669 c0 -5 5 -7 10 -4 6 3 10 8 10 11 0 2 -4 4 -10 4 -5 0 -10
-5 -10 -11z"/>
<path d="M3630 650 c0 -5 5 -10 11 -10 5 0 7 5 4 10 -3 6 -8 10 -11 10 -2 0
-4 -4 -4 -10z"/>
<path d="M4537 612 c-23 -25 -21 -58 3 -82 24 -24 48 -25 78 -4 26 18 30 65 6
88 -21 22 -67 20 -87 -2z m71 -4 c18 -18 15 -43 -8 -63 -17 -15 -24 -16 -45
-7 -43 20 -28 82 20 82 12 0 26 -5 33 -12z"/>
<path d="M2743 519 c-30 -19 -33 -19 -63 -4 l-31 16 6 -43 c6 -36 3 -47 -14
-62 -30 -27 -26 -36 14 -36 29 0 39 -6 55 -32 24 -39 31 -38 46 4 8 25 19 34
49 43 l39 10 -31 23 c-25 18 -33 31 -35 62 l-3 39 -32 -20z"/>
<path d="M1323 513 c10 -17 -13 -53 -33 -53 -25 0 -25 -11 0 -33 16 -14 18
-21 10 -36 -15 -29 -13 -32 17 -20 23 9 30 7 44 -13 19 -24 17 -26 34 27 2 8
16 15 31 15 l27 0 -22 24 c-16 17 -20 30 -15 50 6 25 5 26 -22 16 -25 -10 -31
-8 -45 9 -16 20 -35 30 -26 14z"/>
<path d="M3308 280 c18 -21 15 -74 -6 -93 -22 -20 -73 -22 -90 -5 -9 9 -12 9
-12 0 0 -14 41 -32 71 -32 11 0 31 11 44 25 32 31 33 75 3 101 -13 10 -17 12
-10 4z"/>
<path d="M3233 263 c-21 -8 -15 -51 9 -64 18 -10 24 -8 40 11 30 37 -2 72 -49
53z"/>
</g>
</svg>
